<svg xmlns="http://www.w3.org/2000/svg" xmlns:xlink="http://www.w3.org/1999/xlink" width="500" zoomAndPan="magnify" viewBox="0 0 375 374.999991" height="500" preserveAspectRatio="xMidYMid meet" version="1.0"><defs><clipPath id="949fea2b0c"><path d="M 142 348 L 174 348 L 174 358.457031 L 142 358.457031 Z M 142 348 " clip-rule="nonzero"/></clipPath></defs><path fill="#ffffff" d="M 239.050781 29.023438 C 240.527344 29.425781 244.011719 30.613281 244.664062 33.285156 C 244.925781 34.285156 244.75 35.503906 244.539062 36.753906 L 244.527344 37.03125 C 244.277344 38.648438 244.074219 40.527344 244.789062 42.292969 C 245.179688 43.257812 245.867188 44.136719 246.769531 44.761719 C 245.640625 46.179688 244.640625 47.832031 244.277344 49.789062 C 244.074219 50.929688 244.214844 52.144531 244.5625 53.273438 C 242.320312 52.65625 239.953125 51.691406 237.882812 50.601562 C 233.171875 48.132812 229.738281 44.1875 228.460938 39.789062 C 227.09375 35.125 228.4375 29.851562 231.730469 26.980469 C 231.957031 26.78125 232.121094 26.554688 232.257812 26.277344 C 233.960938 27.746094 236.128906 28.296875 237.996094 28.773438 L 239.050781 29.023438 " fill-opacity="1" fill-rule="nonzero"/><path fill="#ffffff" d="M 291.683594 46.054688 C 292.144531 46.027344 292.609375 46.015625 293.074219 46.027344 C 294.136719 46.054688 294.964844 46.140625 295.691406 46.304688 C 296.066406 46.390625 296.40625 46.644531 296.558594 47.007812 C 296.695312 47.355469 296.695312 47.746094 296.496094 48.082031 C 296.46875 48.222656 296.417969 48.359375 296.34375 48.496094 C 296.082031 48.949219 295.742188 49.3125 295.328125 49.585938 C 294.816406 49.925781 294.199219 50.089844 293.597656 50.089844 C 292.984375 50.089844 292.359375 49.925781 291.84375 49.585938 C 291.257812 49.199219 290.792969 48.597656 290.542969 47.871094 C 290.480469 47.71875 290.492188 47.480469 290.542969 47.257812 C 290.542969 46.617188 291.042969 46.089844 291.683594 46.054688 " fill-opacity="1" fill-rule="nonzero"/><path fill="#ffffff" d="M 222.722656 292.671875 C 224.039062 290.453125 224.765625 288.035156 225.191406 285.679688 C 226.332031 284.714844 227.632812 283.726562 229.113281 282.699219 C 231.554688 280.941406 234.515625 279.0625 237.183594 276.195312 C 238.511719 274.777344 239.613281 273.273438 240.503906 271.71875 C 241.492188 271.394531 242.683594 270.832031 243.988281 269.863281 C 246.457031 268.136719 248.960938 265.015625 250.640625 261.066406 C 251.253906 260.753906 251.90625 260.355469 252.570312 259.878906 C 251.542969 262.207031 250.378906 264.476562 249.039062 266.632812 C 241.179688 279.175781 237.773438 292.007812 234.1875 305.59375 C 232.058594 313.648438 231.730469 322.257812 233.285156 330.441406 C 234.5 336.910156 236.871094 341.355469 240.605469 344 C 243.8125 346.308594 247.683594 346.996094 251.382812 347.410156 L 252.371094 347.496094 C 255.089844 347.785156 257.671875 348.0625 259.800781 349.0625 C 260.066406 349.203125 260.339844 349.339844 260.605469 349.515625 C 259.125 349.652344 257.695312 349.890625 256.320312 350.167969 L 255.152344 350.367188 C 249.074219 351.394531 242.722656 351.355469 236.632812 350.253906 C 235.527344 349.175781 234.339844 347.449219 233.738281 345.28125 C 233.058594 342.875 233.023438 340.429688 232.859375 338.585938 C 232.722656 336.757812 232.457031 335.542969 231.980469 335.480469 C 231.53125 335.429688 230.929688 336.507812 230.453125 338.386719 C 230.101562 339.804688 229.8125 341.796875 230.050781 344.089844 C 229.828125 343.726562 229.601562 343.363281 229.339844 343.046875 C 228.085938 341.53125 226.644531 341.371094 226.492188 341.796875 C 226.28125 342.246094 226.871094 342.960938 227.269531 344.289062 C 227.496094 345.054688 227.785156 345.929688 228.085938 346.882812 C 228.421875 347.921875 229.023438 349.289062 230.050781 350.390625 C 230.101562 350.453125 230.140625 350.503906 230.214844 350.566406 C 230.214844 350.566406 230.191406 350.566406 230.191406 350.59375 C 229.675781 351.21875 229.25 351.933594 228.886719 352.660156 C 227.671875 352.070312 226.378906 351.269531 225.277344 350.078125 C 223.660156 348.398438 222.835938 346.132812 222.109375 344.441406 C 221.417969 342.761719 220.828125 341.65625 220.367188 341.757812 C 219.914062 341.847656 219.652344 343.035156 219.765625 344.980469 C 219.851562 345.957031 220.003906 347.160156 220.453125 348.460938 C 220.113281 348.210938 219.800781 347.972656 219.5625 347.699219 C 218.660156 346.644531 218.410156 344.964844 218.375 343.726562 C 218.324219 342.699219 218.386719 341.621094 218.460938 340.453125 C 218.5 339.441406 218.574219 338.414062 218.574219 337.382812 C 218.546875 334.0625 217.898438 330.894531 217.296875 327.824219 C 217.070312 326.769531 216.871094 325.691406 216.667969 324.640625 C 215.164062 316.042969 215.566406 307.058594 215.96875 298.324219 C 218.636719 297.382812 221.078125 295.417969 222.722656 292.671875 " fill-opacity="1" fill-rule="nonzero"/><path fill="#ffffff" d="M 11.039062 264.277344 C 11.753906 264.164062 11.503906 260.304688 12.34375 254.339844 C 13.144531 248.398438 15.328125 240.277344 20.300781 232.722656 C 25.289062 225.152344 31.878906 219.925781 37.019531 216.832031 C 42.167969 213.710938 45.800781 212.421875 45.628906 211.695312 C 45.488281 211.144531 41.429688 211.292969 35.464844 213.851562 C 29.5625 216.34375 21.855469 221.683594 16.316406 230.089844 C 10.789062 238.5 8.921875 247.683594 8.972656 254.113281 C 8.996094 260.59375 10.453125 264.390625 11.039062 264.277344 Z M 16.203125 281.957031 C 17.207031 284.851562 18.421875 286.394531 19.023438 286.21875 C 20.300781 285.742188 18.847656 278.851562 19.648438 270.464844 C 20.300781 262.09375 22.921875 255.554688 21.742188 254.878906 C 21.179688 254.5625 19.738281 255.894531 18.234375 258.574219 C 16.742188 261.269531 15.328125 265.355469 14.898438 270.066406 C 14.488281 274.777344 15.1875 279.0625 16.203125 281.957031 Z M 24.535156 295.003906 C 25.5 298.210938 26.832031 301.15625 28.257812 303.664062 C 29.761719 306.15625 31.339844 308.238281 32.871094 309.816406 C 35.914062 312.949219 38.382812 314.1875 38.785156 313.738281 C 39.261719 313.199219 37.65625 311.132812 35.539062 307.722656 C 33.382812 304.339844 30.816406 299.476562 29.125 293.664062 C 27.457031 287.871094 27.003906 282.382812 27.003906 278.363281 C 26.992188 274.351562 27.207031 271.746094 26.542969 271.570312 C 25.953125 271.394531 24.535156 273.738281 23.648438 278.023438 C 23.195312 280.152344 22.96875 282.785156 23.03125 285.679688 C 23.171875 288.585938 23.621094 291.78125 24.535156 295.003906 Z M 57.695312 333.902344 C 58.371094 334.980469 59.199219 335.453125 59.800781 335.230469 C 61.039062 334.742188 61.191406 332.171875 61.304688 329.378906 C 61.378906 326.542969 61.378906 323.988281 60.164062 323.425781 C 59.550781 323.1875 58.710938 323.585938 57.957031 324.640625 C 57.21875 325.667969 56.59375 327.335938 56.554688 329.214844 C 56.480469 331.117188 56.992188 332.824219 57.695312 333.902344 Z M 63.683594 336.457031 C 64.171875 340.929688 66.554688 344.550781 69 346.257812 C 71.46875 348.011719 73.445312 347.835938 73.597656 347.273438 C 73.847656 346.59375 72.59375 345.65625 71.328125 343.839844 C 70.074219 342.046875 68.796875 339.238281 68.421875 335.917969 C 68.058594 332.535156 68.421875 329.214844 68.523438 326.707031 C 68.660156 324.164062 68.523438 322.484375 67.882812 322.335938 C 67.257812 322.171875 66.242188 323.511719 65.25 325.96875 C 64.285156 328.386719 63.234375 332.082031 63.683594 336.457031 Z M 93.160156 215.304688 C 98.699219 213.484375 106.28125 210.78125 114.875 210.015625 C 123.460938 209.25 131.316406 210.554688 136.855469 212.007812 C 142.394531 213.472656 145.777344 214.878906 146.140625 214.25 C 146.394531 213.824219 144.414062 212.007812 140.527344 210.039062 C 147.960938 210.441406 156.996094 211.15625 166.480469 213.3125 C 178.421875 216.003906 188.449219 220.96875 194.890625 225.652344 C 201.40625 230.277344 204.6875 234.214844 205.265625 233.75 C 205.742188 233.460938 203.359375 228.636719 196.996094 223.011719 C 190.691406 217.347656 180.140625 211.492188 167.558594 208.675781 C 154.976562 205.816406 143.359375 205.90625 135.125 206.40625 C 133.796875 206.46875 132.609375 206.582031 131.492188 206.667969 C 126.605469 205.441406 120.753906 204.703125 114.449219 205.277344 C 104.976562 206.117188 97.144531 209.539062 91.855469 212.195312 C 86.515625 214.925781 83.484375 217.03125 83.761719 217.621094 C 84.023438 218.25 87.59375 217.195312 93.160156 215.304688 Z M 200.578125 163.699219 C 200.203125 163.472656 198.585938 165.316406 196.769531 168.761719 C 194.925781 172.21875 192.996094 177.332031 192.03125 183.261719 C 191.09375 189.175781 191.316406 194.675781 191.996094 198.511719 C 192.660156 202.371094 193.597656 204.613281 194.023438 204.515625 C 195.039062 204.3125 193.535156 195.015625 195.402344 183.800781 C 197.132812 172.558594 201.480469 164.1875 200.578125 163.699219 Z M 185.617188 169.238281 C 185.777344 171.679688 186.292969 173.136719 186.742188 173.136719 C 187.734375 173.074219 188.035156 167.359375 190.152344 160.828125 C 192.144531 154.226562 195.175781 149.386719 194.414062 148.773438 C 194.050781 148.484375 192.769531 149.386719 191.242188 151.316406 C 189.726562 153.222656 188.023438 156.203125 186.894531 159.789062 C 185.777344 163.386719 185.464844 166.820312 185.617188 169.238281 Z M 196.03125 134.601562 C 195.402344 133.972656 190.304688 138.171875 186.65625 145.300781 C 182.945312 152.40625 182.457031 159.011719 183.347656 159.136719 C 184.3125 159.335938 186.230469 153.484375 189.675781 146.867188 C 193.070312 140.214844 196.742188 135.277344 196.03125 134.601562 Z M 249.300781 107.996094 C 250.265625 111.316406 252.285156 112.457031 252.535156 112.132812 C 252.910156 111.792969 251.855469 110.265625 251.65625 107.558594 C 251.367188 104.839844 252.421875 101.203125 254.363281 97.144531 C 258.023438 89.023438 262.710938 83.308594 262.019531 82.609375 C 261.683594 82.292969 260.039062 83.371094 257.910156 85.617188 C 255.804688 87.882812 253.25 91.378906 251.28125 95.703125 C 250.289062 97.859375 249.476562 100.039062 249.101562 102.195312 C 248.710938 104.324219 248.8125 106.378906 249.300781 107.996094 Z M 254.863281 109.074219 C 255.828125 109.074219 256.542969 105.527344 258.121094 101.542969 C 259.601562 97.519531 261.417969 94.386719 260.691406 93.761719 C 260.039062 93.109375 256.707031 95.640625 254.925781 100.328125 C 253.136719 104.988281 253.9375 109.125 254.863281 109.074219 Z M 258.925781 110.714844 C 259.300781 112.558594 260.066406 114.074219 260.878906 115.175781 C 262.535156 117.421875 264.1875 118.070312 264.464844 117.734375 C 264.777344 117.359375 263.835938 116.117188 262.960938 113.988281 C 262.082031 111.882812 261.570312 108.875 262.308594 105.464844 C 263.011719 102.058594 264.550781 99.097656 265.578125 96.855469 C 266.644531 94.625 267.195312 93.109375 266.792969 92.832031 C 266.417969 92.582031 265.179688 93.597656 263.550781 95.578125 C 261.96875 97.546875 259.839844 100.640625 258.960938 104.777344 C 258.5625 106.804688 258.523438 108.898438 258.925781 110.714844 Z M 268.273438 117.707031 C 268.925781 119.914062 270.253906 121.644531 271.445312 122.507812 C 272.648438 123.410156 273.636719 123.546875 273.914062 123.183594 C 274.453125 122.382812 272.445312 120.113281 271.554688 116.769531 C 270.542969 113.449219 270.992188 110.492188 270.117188 110.089844 C 269.6875 109.925781 268.949219 110.554688 268.410156 111.96875 C 267.847656 113.335938 267.648438 115.492188 268.273438 117.707031 Z M 272.359375 163.070312 C 273.296875 163.160156 274.238281 161.40625 274.453125 159.164062 C 274.652344 156.894531 274.0625 155.015625 273.125 154.925781 C 272.183594 154.839844 271.257812 156.582031 271.054688 158.847656 C 270.828125 161.09375 271.445312 162.972656 272.359375 163.070312 Z M 277.949219 195.277344 C 280.390625 192.296875 283.285156 187.671875 285.417969 182.132812 C 287.523438 176.570312 288.4375 171.207031 288.597656 167.359375 C 288.773438 163.472656 288.347656 161.09375 287.910156 161.09375 C 286.894531 161.09375 286.320312 170.402344 282.234375 180.929688 C 278.261719 191.480469 272.472656 198.824219 273.234375 199.476562 C 273.574219 199.765625 275.503906 198.285156 277.949219 195.277344 Z M 293.148438 56.34375 C 293.375 56.34375 293.585938 56.34375 293.800781 56.316406 C 295.328125 56.203125 296.71875 55.664062 297.835938 54.8125 L 301.832031 54.613281 C 302.535156 54.5625 303.074219 54.300781 303.425781 53.8125 C 303.675781 53.523438 304.125 52.683594 303.511719 51.566406 C 302.847656 50.265625 301.796875 49.160156 300.503906 48.421875 C 300.441406 47.796875 300.292969 47.207031 300.015625 46.667969 C 298.710938 44.25 295.464844 43.910156 293.109375 43.859375 C 291.355469 43.847656 289.339844 43.9375 287.523438 44.925781 C 286.871094 45.289062 286.332031 45.726562 285.867188 46.230469 C 285.84375 46.242188 285.84375 46.242188 285.816406 46.242188 C 284.589844 46.945312 283.550781 47.859375 282.660156 48.671875 C 281.191406 49.988281 281.695312 51.265625 281.871094 51.628906 C 282.269531 52.417969 282.972656 52.683594 283.261719 52.796875 L 286.621094 54.046875 C 287.09375 54.4375 287.609375 54.777344 288.222656 55.089844 C 289.851562 55.914062 291.542969 56.34375 293.148438 56.34375 Z M 295.277344 119.4375 C 296.230469 119.289062 296.65625 117.257812 297.144531 115 C 297.597656 112.734375 298.023438 110.714844 297.207031 110.203125 C 296.46875 109.664062 294.425781 111.316406 293.800781 114.300781 C 293.171875 117.28125 294.363281 119.636719 295.277344 119.4375 Z M 297.710938 125.652344 C 298.136719 127.507812 298.675781 128.597656 299.113281 128.574219 C 299.589844 128.523438 299.902344 127.359375 300.128906 125.539062 C 300.355469 123.722656 300.464844 121.28125 301.003906 118.835938 C 301.542969 116.394531 302.535156 114.351562 303.449219 112.996094 C 304.363281 111.628906 305.203125 110.839844 304.976562 110.402344 C 304.789062 110 303.425781 110.0625 301.746094 111.316406 C 300.039062 112.558594 298.335938 115.027344 297.660156 118.097656 C 297.007812 121.117188 297.320312 123.8125 297.710938 125.652344 Z M 308.5625 43.171875 C 308.964844 43.132812 309.238281 41.128906 307.648438 38.484375 C 306.117188 35.851562 302.648438 33.058594 298.109375 32.09375 C 293.648438 31.167969 289.652344 31.816406 286.957031 32.46875 C 284.25 33.144531 282.671875 33.875 282.746094 34.335938 C 282.835938 34.8125 284.589844 34.914062 287.269531 34.851562 C 289.964844 34.824219 293.648438 34.625 297.394531 35.441406 C 301.066406 36.214844 304.050781 38.144531 305.742188 39.925781 C 307.460938 41.691406 308.074219 43.285156 308.5625 43.171875 Z M 275.027344 181.59375 C 275.792969 182.070312 279.601562 176.730469 280.65625 168.875 C 281.78125 161.054688 279.539062 154.875 278.6875 155.128906 C 277.722656 155.328125 278.324219 161.28125 277.296875 168.421875 C 276.355469 175.566406 274.152344 181.140625 275.027344 181.59375 Z M 278.710938 109.210938 C 278.285156 109.050781 277.359375 110.125 276.707031 112.230469 C 276.042969 114.351562 275.792969 117.53125 276.78125 120.855469 C 277.746094 124.175781 279.714844 126.707031 281.394531 128.097656 C 283.109375 129.539062 284.476562 129.914062 284.738281 129.550781 C 285.328125 128.773438 281.621094 125.390625 280.027344 119.890625 C 278.375 114.414062 279.601562 109.550781 278.710938 109.210938 Z M 276.921875 34.851562 C 275.316406 35.011719 273.125 35.851562 271.28125 37.582031 C 269.4375 39.285156 268.460938 41.441406 268.160156 43.019531 C 267.871094 44.613281 268.1875 45.613281 268.636719 45.703125 C 269.578125 45.839844 270.792969 42.65625 273.613281 40.074219 C 276.367188 37.433594 279.652344 36.417969 279.5625 35.476562 C 279.515625 35.027344 278.523438 34.648438 276.921875 34.851562 Z M 256.207031 76.566406 C 254.5 77.382812 252.371094 79.136719 250.941406 81.730469 C 249.5 84.335938 249.164062 87.070312 249.386719 88.9375 C 249.613281 90.839844 250.265625 91.867188 250.691406 91.804688 C 251.65625 91.644531 251.605469 87.46875 253.925781 83.371094 C 256.144531 79.222656 259.714844 77.042969 259.324219 76.140625 C 259.152344 75.742188 257.910156 75.742188 256.207031 76.566406 Z M 256.082031 68.8125 C 255.878906 68.410156 254.976562 68.335938 253.761719 68.898438 C 252.570312 69.425781 251.09375 70.628906 250.101562 72.382812 C 249.101562 74.148438 248.785156 76.015625 248.9375 77.320312 C 249.074219 78.636719 249.589844 79.375 250.039062 79.351562 C 251.003906 79.25 251.519531 76.667969 253.046875 74.085938 C 254.5 71.441406 256.457031 69.6875 256.082031 68.8125 Z M 359.664062 73.921875 C 361.007812 76.957031 363.875 78.285156 365.691406 78.523438 C 367.597656 78.796875 368.699219 78.347656 368.726562 77.894531 C 368.761719 77.40625 367.761719 76.980469 366.433594 76.242188 C 365.128906 75.503906 363.539062 74.3125 362.785156 72.53125 C 361.996094 70.878906 362.371094 68.949219 362.734375 67.355469 C 363.097656 65.804688 363.25 64.664062 362.824219 64.4375 C 362.421875 64.238281 361.519531 64.886719 360.515625 66.417969 C 360.015625 67.15625 359.503906 68.160156 359.214844 69.460938 C 358.925781 70.765625 358.964844 72.445312 359.664062 73.921875 Z M 369.601562 69.636719 C 370.117188 69.4375 370.542969 69.375 371.03125 69.886719 C 371.53125 70.363281 371.644531 71.027344 372.070312 71.28125 C 372.410156 71.542969 373.449219 70.917969 373.363281 69.238281 C 373.324219 68.75 373.125 68.148438 372.710938 67.609375 C 372.898438 67.21875 372.734375 66.542969 371.871094 65.992188 C 370.96875 65.402344 369.152344 65.152344 367.597656 66.34375 C 366.683594 67.082031 366.28125 68.019531 366.167969 68.886719 C 366.082031 69.199219 366.007812 69.488281 365.992188 69.75 C 365.894531 70.789062 366.195312 71.644531 366.480469 72.195312 C 367.109375 73.347656 367.785156 73.722656 368.210938 73.574219 C 368.664062 73.410156 368.75 72.582031 368.8125 71.617188 C 368.839844 70.652344 369.289062 69.6875 369.601562 69.636719 Z M 2.945312 233.359375 C 5.453125 220.265625 9.738281 208.085938 15.703125 197.207031 C 16.957031 194.902344 18.484375 192.695312 20.101562 190.367188 C 22.179688 187.382812 24.324219 184.289062 25.929688 180.878906 C 27.957031 176.570312 30.125 173.359375 33.722656 169.488281 C 59.125 141.894531 92.59375 121.316406 127.972656 111.59375 C 129.953125 111.054688 131.917969 110.539062 133.886719 110.015625 C 141.679688 107.957031 149.75 105.839844 157.359375 102.230469 C 158.8125 101.566406 160.226562 100.929688 161.617188 100.351562 C 166.441406 98.257812 171.417969 96.117188 175.816406 91.644531 C 182.207031 85.164062 188.222656 78.257812 194.023438 71.566406 C 197.082031 68.019531 200.152344 64.511719 203.296875 61.027344 C 204.238281 59.976562 205.175781 58.898438 206.117188 57.820312 C 211.554688 51.628906 217.183594 45.289062 224.5625 42.207031 C 226.40625 47.28125 230.414062 51.742188 235.78125 54.5625 C 237.773438 55.628906 243.574219 58.421875 248.824219 58.421875 C 250.289062 58.421875 251.71875 58.210938 253.023438 57.671875 C 257.597656 55.691406 259.890625 48.960938 260.992188 43.648438 C 260.992188 43.648438 260.992188 43.648438 260.992188 43.621094 C 262.082031 38.308594 261.167969 33.195312 258.4375 29.601562 C 257.285156 28.097656 255.917969 26.929688 254.464844 25.929688 C 260.316406 24.425781 266.84375 24.347656 272.695312 24.4375 C 280.84375 24.5625 288.886719 25.738281 296.632812 27.984375 C 302.121094 29.585938 307.597656 31.730469 312.910156 33.824219 C 318.1875 35.890625 323.613281 38.019531 329.203125 39.648438 C 332.546875 40.640625 335.96875 41.46875 339.277344 42.257812 C 345.214844 43.683594 350.816406 45.039062 356.167969 47.292969 C 356.769531 47.542969 357.347656 47.820312 357.9375 48.082031 C 364.414062 51.203125 372.335938 57.230469 373.347656 64.085938 C 373.976562 68.273438 373.8125 73.007812 373.675781 77.582031 L 373.585938 79.914062 C 373.4375 85.953125 372.835938 91.21875 371.769531 96.042969 C 370.628906 101.265625 368.949219 104.550781 366.53125 106.367188 C 364.125 108.132812 360.804688 108.625 357.285156 109.125 C 353.925781 109.613281 350.46875 110.101562 347.183594 111.742188 C 345.792969 112.445312 344.589844 113.273438 343.398438 114.074219 C 342.484375 114.699219 341.605469 115.316406 340.730469 115.777344 C 337.773438 117.382812 334.050781 117.847656 330.304688 117.105469 C 328.824219 116.820312 327.335938 116.34375 325.769531 115.828125 C 324.125 115.316406 322.445312 114.777344 320.679688 114.414062 C 317.109375 113.699219 313.898438 113.949219 311.230469 115.027344 C 311.292969 114.902344 311.367188 114.800781 311.433594 114.6875 C 312.398438 113.046875 313.136719 111.90625 312.761719 111.34375 C 312.421875 110.804688 310.894531 111.003906 308.988281 112.359375 C 307.082031 113.699219 305.003906 116.230469 303.675781 119.414062 C 302.347656 122.609375 301.921875 125.601562 301.882812 127.734375 C 301.859375 129.890625 302.195312 131.28125 302.824219 131.417969 C 303.074219 131.46875 303.363281 131.28125 303.648438 130.964844 C 304.675781 139.601562 304.464844 149 302.960938 158.898438 C 300.980469 172.082031 296.65625 183.609375 290.078125 193.121094 C 289.5625 193.886719 288.886719 194.625 288.199219 195.441406 C 287.171875 196.582031 286.128906 197.773438 285.277344 199.226562 C 282.03125 204.738281 279.363281 210.554688 276.78125 216.15625 C 273.035156 224.324219 269.515625 232.019531 264.3125 239.039062 C 263.660156 239.941406 263.023438 240.542969 262.558594 240.929688 C 263.023438 234.214844 261.394531 228.359375 259.726562 224.4375 C 257.871094 220.039062 256.054688 217.734375 255.464844 217.996094 C 254.839844 218.273438 255.578125 221.082031 256.519531 225.453125 C 257.472656 229.800781 258.523438 235.855469 257.648438 242.269531 C 257.171875 242.785156 256.882812 243.4375 256.792969 244.152344 C 256.683594 245.339844 256.507812 246.507812 256.28125 247.683594 C 255.242188 250.65625 253.8125 253.222656 252.285156 255.214844 C 253.160156 250.027344 252.671875 245.390625 252.082031 242.121094 C 251.382812 238.488281 250.527344 236.304688 249.902344 236.367188 C 249.238281 236.417969 248.898438 238.75 248.710938 242.347656 C 248.511719 245.957031 248.449219 250.84375 247.320312 255.84375 C 246.40625 259.851562 244.726562 263.285156 242.949219 265.753906 C 243.738281 262.972656 243.988281 260.304688 243.824219 258.136719 C 243.484375 253.109375 241.769531 250.441406 241.230469 250.640625 C 240.503906 250.84375 241.003906 253.6875 240.441406 258.023438 C 239.953125 262.308594 238.109375 268.25 233.710938 272.933594 C 231.832031 274.976562 229.539062 276.707031 227.382812 278.4375 C 227.671875 277.796875 227.945312 277.171875 228.210938 276.519531 C 230.589844 270.832031 231.445312 264.929688 230.878906 260.78125 C 230.339844 256.605469 228.863281 254.390625 228.285156 254.589844 C 227.609375 254.789062 227.882812 257.183594 227.496094 260.84375 C 227.234375 264.101562 226.21875 268.3125 224.464844 272.910156 C 224.511719 272.222656 224.601562 271.519531 224.601562 270.804688 C 224.675781 259.992188 220.277344 250.84375 215.941406 245.566406 C 211.617188 240.164062 207.707031 238.160156 207.394531 238.636719 C 206.90625 239.199219 209.890625 242.046875 213.183594 247.496094 C 216.507812 252.859375 219.890625 261.230469 219.828125 270.753906 C 219.765625 279.152344 217.019531 286.570312 214.0625 291.871094 C 213.246094 292.222656 212.421875 292.382812 211.644531 292.183594 C 210.113281 291.796875 208.546875 292.496094 207.796875 293.863281 C 205.667969 297.949219 203.472656 301.832031 199.953125 304.601562 C 197.195312 306.808594 195.441406 308.550781 193.5625 311.984375 C 189.386719 319.640625 184.113281 326.457031 177.910156 332.246094 C 174.085938 335.804688 169.9375 338.976562 165.503906 341.707031 C 167.019531 339.714844 168.183594 337.761719 168.972656 336.03125 C 170.652344 332.398438 170.992188 329.929688 170.589844 329.804688 C 170.101562 329.613281 169 331.746094 166.894531 334.816406 C 164.800781 337.921875 161.554688 341.933594 157.183594 345.503906 C 156.34375 346.167969 155.492188 346.78125 154.636719 347.359375 C 153.234375 347.984375 151.769531 348.550781 150.316406 349.089844 C 153.007812 346.257812 154.839844 343.1875 155.855469 340.679688 C 157.28125 337.132812 157.382812 334.742188 156.957031 334.613281 C 156.457031 334.488281 155.566406 336.570312 153.699219 339.601562 C 151.855469 342.609375 148.847656 346.480469 144.589844 349.652344 C 143.449219 350.503906 142.28125 351.21875 141.117188 351.871094 C 135.015625 353.324219 128.761719 354.089844 122.46875 354.089844 C 122.457031 354.089844 122.382812 354.089844 122.382812 354.089844 C 122.144531 354.089844 121.867188 354.140625 121.617188 354.175781 C 102.070312 358.664062 81.492188 358.636719 61.917969 354.25 C 60.050781 353.414062 58.207031 352.371094 56.640625 350.855469 C 53.347656 347.699219 52.15625 343.210938 52.019531 340.054688 C 51.84375 336.847656 52.496094 334.714844 51.867188 334.402344 C 51.367188 334.089844 49.4375 335.832031 48.660156 339.804688 C 48.296875 341.734375 48.246094 344.175781 48.949219 346.757812 C 49.0625 347.160156 49.199219 347.558594 49.347656 347.949219 C 49.285156 347.984375 49.210938 347.984375 49.171875 348.035156 C 48.984375 348.148438 48.785156 348.210938 48.585938 348.324219 C 46.640625 346.246094 45.3125 343.902344 44.511719 342.019531 C 43.535156 339.867188 43.070312 338.300781 42.394531 338.273438 C 41.769531 338.25 40.976562 339.941406 41.203125 342.8125 C 41.339844 344.488281 41.90625 346.570312 43.046875 348.636719 C 41.480469 348.148438 40.152344 347.222656 39.347656 345.992188 C 38.835938 345.203125 38.019531 344.691406 37.105469 344.515625 C 37.03125 344.515625 36.992188 344.515625 36.929688 344.515625 C 38.246094 341.28125 38.296875 338.222656 38.160156 336.117188 C 37.90625 333.476562 37.332031 331.933594 36.679688 331.910156 C 36.003906 331.882812 35.402344 333.449219 34.789062 335.855469 C 34.136719 338.210938 33.472656 341.457031 31.804688 344.113281 C 30.839844 345.707031 29.523438 346.820312 28.195312 347.648438 C 26.464844 347.898438 24.675781 347.847656 22.996094 347.472656 C 27.144531 341.59375 27.621094 333.726562 27.117188 327.558594 C 25.914062 312.398438 20.214844 298.300781 14.710938 284.664062 C 13.886719 282.621094 13.058594 280.578125 12.242188 278.5625 C 6.84375 264.902344 0.164062 247.984375 2.945312 233.359375 " fill-opacity="1" fill-rule="nonzero"/><path fill="#ffffff" d="M 250.402344 17.195312 C 251.253906 15.765625 253.5 15.113281 255.242188 15.765625 C 256.429688 16.191406 257.445312 17.15625 258.136719 18.371094 C 255.351562 18.746094 252.597656 19.347656 249.925781 20.25 C 249.789062 19.199219 249.839844 18.097656 250.402344 17.195312 " fill-opacity="1" fill-rule="nonzero"/><path fill="#ffffff" d="M 254.863281 32.320312 C 256.820312 34.875 257.445312 38.660156 256.59375 42.71875 C 255.402344 48.484375 253.335938 52.632812 251.253906 53.535156 C 250.628906 53.785156 249.863281 53.898438 249.039062 53.921875 C 248.699219 53.761719 248.449219 53.484375 248.273438 53.273438 C 247.683594 52.507812 247.421875 51.378906 247.597656 50.390625 C 247.933594 48.484375 249.300781 46.878906 251.054688 44.9375 C 251.570312 44.386719 251.632812 43.574219 251.253906 42.945312 C 250.867188 42.292969 250.128906 41.980469 249.386719 42.179688 C 248.925781 42.292969 248.171875 41.753906 247.910156 41.066406 C 247.507812 40.050781 247.660156 38.746094 247.847656 37.519531 L 247.882812 37.269531 C 248.109375 35.789062 248.359375 34.136719 247.933594 32.457031 C 247.144531 29.363281 244.238281 26.929688 239.925781 25.789062 L 238.800781 25.503906 C 236.519531 24.914062 234.515625 24.425781 233.546875 22.644531 C 232.898438 21.441406 232.882812 19.964844 233.421875 18.699219 C 234.738281 17.71875 237.007812 18.257812 238.574219 19.285156 C 239.765625 20.0625 240.84375 21.128906 241.996094 22.242188 C 242.796875 23.058594 243.648438 23.910156 244.589844 24.6875 C 244.988281 25.027344 245.441406 25.289062 245.84375 25.613281 C 246.40625 26.78125 247.546875 27.496094 248.761719 27.558594 C 248.875 27.605469 248.960938 27.671875 249.074219 27.746094 C 251.316406 29.136719 253.449219 30.453125 254.863281 32.320312 " fill-opacity="1" fill-rule="nonzero"/><path fill="#ffffff" d="M 190.464844 328.539062 C 190.527344 328.75 190.605469 328.925781 190.691406 329.101562 C 191.003906 329.929688 191.316406 330.742188 191.679688 331.546875 C 192.707031 333.925781 194.5 337.308594 197.910156 339.3125 C 200.316406 340.71875 202.933594 341.054688 205.242188 341.355469 C 205.855469 341.417969 206.457031 341.507812 207.042969 341.59375 C 209.261719 341.957031 210.828125 342.761719 211.230469 343.726562 C 211.34375 344 211.507812 344.238281 211.679688 344.464844 C 211.757812 345.316406 211.855469 346.15625 212.019531 346.910156 C 208.925781 347.835938 205.605469 348.074219 202.445312 347.535156 L 202.195312 347.496094 C 201.882812 347.410156 201.542969 347.359375 201.230469 347.246094 C 198.183594 346.28125 195.742188 344.550781 194.101562 343.125 C 192.457031 341.707031 191.492188 340.605469 191.042969 340.832031 C 190.667969 341.03125 190.890625 342.621094 192.308594 344.714844 C 192.859375 345.59375 193.699219 346.507812 194.703125 347.410156 C 194.210938 347.523438 193.738281 347.648438 193.285156 347.761719 C 192.859375 347.898438 192.421875 348.011719 191.996094 348.125 C 186.34375 349.464844 179.902344 346.957031 176.46875 342.296875 C 178.546875 340.679688 180.566406 338.976562 182.507812 337.160156 C 185.351562 334.515625 187.972656 331.59375 190.464844 328.539062 " fill-opacity="1" fill-rule="nonzero"/><g clip-path="url(#949fea2b0c)"><path fill="#ffffff" d="M 168.546875 348.75 C 170.390625 349.175781 172.042969 350.480469 172.898438 352.183594 C 173.324219 353.011719 173.546875 353.976562 173.546875 354.917969 C 168.6875 354.050781 163.75 354.878906 159.625 355.59375 L 142.230469 358.511719 C 151.117188 356.445312 159.6875 352.984375 167.53125 348.324219 C 167.859375 348.5 168.183594 348.664062 168.546875 348.75 " fill-opacity="1" fill-rule="nonzero"/></g></svg>